<svg xmlns="http://www.w3.org/2000/svg" version="1.1" xmlns:xlink="http://www.w3.org/1999/xlink" xmlns:svgjs="http://svgjs.dev/svgjs" viewBox="0 0 800 800" opacity="1" width="800" height="800"><g stroke-width="2.5" stroke="hsl(261, 60%, 38%)" fill="none"><circle r="3.026315789473684" cx="0" cy="0" fill="hsl(261, 60%, 38%)" stroke="none"></circle><circle r="3.026315789473684" cx="44.44444444444444" cy="0" fill="hsl(261, 60%, 38%)" stroke="none"></circle><circle r="3.026315789473684" cx="88.88888888888889" cy="0" fill="hsl(261, 60%, 38%)" stroke="none"></circle><circle r="3.026315789473684" cx="133.33333333333331" cy="0" fill="hsl(261, 60%, 38%)" stroke="none"></circle><circle r="3.026315789473684" cx="177.77777777777777" cy="0" fill="hsl(261, 60%, 38%)" stroke="none"></circle><circle r="3.026315789473684" cx="222.22222222222223" cy="0" fill="hsl(261, 60%, 38%)" stroke="none"></circle><circle r="3.026315789473684" cx="266.6666666666667" cy="0" fill="hsl(261, 60%, 38%)" stroke="none"></circle><circle r="3.026315789473684" cx="311.11111111111114" cy="0" fill="hsl(261, 60%, 38%)" stroke="none"></circle><circle r="3.026315789473684" cx="355.5555555555556" cy="0" fill="hsl(261, 60%, 38%)" stroke="none"></circle><circle r="3.026315789473684" cx="400.00000000000006" cy="0" fill="hsl(261, 60%, 38%)" stroke="none"></circle><circle r="3.026315789473684" cx="444.4444444444445" cy="0" fill="hsl(261, 60%, 38%)" stroke="none"></circle><circle r="3.026315789473684" cx="488.88888888888897" cy="0" fill="hsl(261, 60%, 38%)" stroke="none"></circle><circle r="3.026315789473684" cx="533.3333333333334" cy="0" fill="hsl(261, 60%, 38%)" stroke="none"></circle><circle r="3.026315789473684" cx="577.7777777777778" cy="0" fill="hsl(261, 60%, 38%)" stroke="none"></circle><circle r="3.026315789473684" cx="622.2222222222223" cy="0" fill="hsl(261, 60%, 38%)" stroke="none"></circle><circle r="3.026315789473684" cx="666.6666666666667" cy="0" fill="hsl(261, 60%, 38%)" stroke="none"></circle><circle r="3.026315789473684" cx="711.1111111111112" cy="0" fill="hsl(261, 60%, 38%)" stroke="none"></circle><circle r="3.026315789473684" cx="755.5555555555557" cy="0" fill="hsl(261, 60%, 38%)" stroke="none"></circle><circle r="3.026315789473684" cx="800.0000000000001" cy="0" fill="hsl(261, 60%, 38%)" stroke="none"></circle><circle r="3.026315789473684" cx="0" cy="47.05882352941177" fill="hsl(261, 60%, 38%)" stroke="none"></circle><circle r="3.026315789473684" cx="44.44444444444444" cy="47.05882352941177" fill="hsl(261, 60%, 38%)" stroke="none"></circle><circle r="3.026315789473684" cx="88.88888888888889" cy="47.05882352941177" fill="hsl(261, 60%, 38%)" stroke="none"></circle><circle r="3.026315789473684" cx="133.33333333333331" cy="47.05882352941177" fill="hsl(261, 60%, 38%)" stroke="none"></circle><circle r="3.026315789473684" cx="177.77777777777777" cy="47.05882352941177" fill="hsl(261, 60%, 38%)" stroke="none"></circle><circle r="3.026315789473684" cx="222.22222222222223" cy="47.05882352941177" fill="hsl(261, 60%, 38%)" stroke="none"></circle><circle r="3.026315789473684" cx="266.6666666666667" cy="47.05882352941177" fill="hsl(261, 60%, 38%)" stroke="none"></circle><circle r="3.026315789473684" cx="311.11111111111114" cy="47.05882352941177" fill="hsl(261, 60%, 38%)" stroke="none"></circle><circle r="3.026315789473684" cx="355.5555555555556" cy="47.05882352941177" fill="hsl(261, 60%, 38%)" stroke="none"></circle><circle r="3.026315789473684" cx="400.00000000000006" cy="47.05882352941177" fill="hsl(261, 60%, 38%)" stroke="none"></circle><circle r="3.026315789473684" cx="444.4444444444445" cy="47.05882352941177" fill="hsl(261, 60%, 38%)" stroke="none"></circle><circle r="3.026315789473684" cx="488.88888888888897" cy="47.05882352941177" fill="hsl(261, 60%, 38%)" stroke="none"></circle><circle r="3.026315789473684" cx="533.3333333333334" cy="47.05882352941177" fill="hsl(261, 60%, 38%)" stroke="none"></circle><circle r="3.026315789473684" cx="577.7777777777778" cy="47.05882352941177" fill="hsl(261, 60%, 38%)" stroke="none"></circle><circle r="3.026315789473684" cx="622.2222222222223" cy="47.05882352941177" fill="hsl(261, 60%, 38%)" stroke="none"></circle><circle r="3.026315789473684" cx="666.6666666666667" cy="47.05882352941177" fill="hsl(261, 60%, 38%)" stroke="none"></circle><circle r="3.026315789473684" cx="711.1111111111112" cy="47.05882352941177" fill="hsl(261, 60%, 38%)" stroke="none"></circle><circle r="3.026315789473684" cx="755.5555555555557" cy="47.05882352941177" fill="hsl(261, 60%, 38%)" stroke="none"></circle><circle r="3.026315789473684" cx="800.0000000000001" cy="47.05882352941177" fill="hsl(261, 60%, 38%)" stroke="none"></circle><circle r="3.026315789473684" cx="0" cy="94.11764705882354" fill="hsl(261, 60%, 38%)" stroke="none"></circle><circle r="3.026315789473684" cx="44.44444444444444" cy="94.11764705882354" fill="hsl(261, 60%, 38%)" stroke="none"></circle><circle r="3.026315789473684" cx="88.88888888888889" cy="94.11764705882354" fill="hsl(261, 60%, 38%)" stroke="none"></circle><circle r="3.026315789473684" cx="133.33333333333331" cy="94.11764705882354" fill="hsl(261, 60%, 38%)" stroke="none"></circle><circle r="3.026315789473684" cx="177.77777777777777" cy="94.11764705882354" fill="hsl(261, 60%, 38%)" stroke="none"></circle><circle r="3.026315789473684" cx="222.22222222222223" cy="94.11764705882354" fill="hsl(261, 60%, 38%)" stroke="none"></circle><circle r="3.026315789473684" cx="266.6666666666667" cy="94.11764705882354" fill="hsl(261, 60%, 38%)" stroke="none"></circle><circle r="3.026315789473684" cx="311.11111111111114" cy="94.11764705882354" fill="hsl(261, 60%, 38%)" stroke="none"></circle><circle r="3.026315789473684" cx="355.5555555555556" cy="94.11764705882354" fill="hsl(261, 60%, 38%)" stroke="none"></circle><circle r="3.026315789473684" cx="400.00000000000006" cy="94.11764705882354" fill="hsl(261, 60%, 38%)" stroke="none"></circle><circle r="3.026315789473684" cx="444.4444444444445" cy="94.11764705882354" fill="hsl(261, 60%, 38%)" stroke="none"></circle><circle r="3.026315789473684" cx="488.88888888888897" cy="94.11764705882354" fill="hsl(261, 60%, 38%)" stroke="none"></circle><circle r="3.026315789473684" cx="533.3333333333334" cy="94.11764705882354" fill="hsl(261, 60%, 38%)" stroke="none"></circle><circle r="3.026315789473684" cx="577.7777777777778" cy="94.11764705882354" fill="hsl(261, 60%, 38%)" stroke="none"></circle><circle r="3.026315789473684" cx="622.2222222222223" cy="94.11764705882354" fill="hsl(261, 60%, 38%)" stroke="none"></circle><circle r="3.026315789473684" cx="666.6666666666667" cy="94.11764705882354" fill="hsl(261, 60%, 38%)" stroke="none"></circle><circle r="3.026315789473684" cx="711.1111111111112" cy="94.11764705882354" fill="hsl(261, 60%, 38%)" stroke="none"></circle><circle r="3.026315789473684" cx="755.5555555555557" cy="94.11764705882354" fill="hsl(261, 60%, 38%)" stroke="none"></circle><circle r="3.026315789473684" cx="800.0000000000001" cy="94.11764705882354" fill="hsl(261, 60%, 38%)" stroke="none"></circle><circle r="3.026315789473684" cx="0" cy="141.1764705882353" fill="hsl(261, 60%, 38%)" stroke="none"></circle><circle r="3.026315789473684" cx="44.44444444444444" cy="141.1764705882353" fill="hsl(261, 60%, 38%)" stroke="none"></circle><circle r="3.026315789473684" cx="88.88888888888889" cy="141.1764705882353" fill="hsl(261, 60%, 38%)" stroke="none"></circle><circle r="3.026315789473684" cx="133.33333333333331" cy="141.1764705882353" fill="hsl(261, 60%, 38%)" stroke="none"></circle><circle r="3.026315789473684" cx="177.77777777777777" cy="141.1764705882353" fill="hsl(261, 60%, 38%)" stroke="none"></circle><circle r="3.026315789473684" cx="222.22222222222223" cy="141.1764705882353" fill="hsl(261, 60%, 38%)" stroke="none"></circle><circle r="3.026315789473684" cx="266.6666666666667" cy="141.1764705882353" fill="hsl(261, 60%, 38%)" stroke="none"></circle><circle r="3.026315789473684" cx="311.11111111111114" cy="141.1764705882353" fill="hsl(261, 60%, 38%)" stroke="none"></circle><circle r="3.026315789473684" cx="355.5555555555556" cy="141.1764705882353" fill="hsl(261, 60%, 38%)" stroke="none"></circle><circle r="3.026315789473684" cx="400.00000000000006" cy="141.1764705882353" fill="hsl(261, 60%, 38%)" stroke="none"></circle><circle r="3.026315789473684" cx="444.4444444444445" cy="141.1764705882353" fill="hsl(261, 60%, 38%)" stroke="none"></circle><circle r="3.026315789473684" cx="488.88888888888897" cy="141.1764705882353" fill="hsl(261, 60%, 38%)" stroke="none"></circle><circle r="3.026315789473684" cx="533.3333333333334" cy="141.1764705882353" fill="hsl(261, 60%, 38%)" stroke="none"></circle><circle r="3.026315789473684" cx="577.7777777777778" cy="141.1764705882353" fill="hsl(261, 60%, 38%)" stroke="none"></circle><circle r="3.026315789473684" cx="622.2222222222223" cy="141.1764705882353" fill="hsl(261, 60%, 38%)" stroke="none"></circle><circle r="3.026315789473684" cx="666.6666666666667" cy="141.1764705882353" fill="hsl(261, 60%, 38%)" stroke="none"></circle><circle r="3.026315789473684" cx="711.1111111111112" cy="141.1764705882353" fill="hsl(261, 60%, 38%)" stroke="none"></circle><circle r="3.026315789473684" cx="755.5555555555557" cy="141.1764705882353" fill="hsl(261, 60%, 38%)" stroke="none"></circle><circle r="3.026315789473684" cx="800.0000000000001" cy="141.1764705882353" fill="hsl(261, 60%, 38%)" stroke="none"></circle><circle r="3.026315789473684" cx="0" cy="188.23529411764707" fill="hsl(261, 60%, 38%)" stroke="none"></circle><circle r="3.026315789473684" cx="44.44444444444444" cy="188.23529411764707" fill="hsl(261, 60%, 38%)" stroke="none"></circle><circle r="3.026315789473684" cx="88.88888888888889" cy="188.23529411764707" fill="hsl(261, 60%, 38%)" stroke="none"></circle><circle r="3.026315789473684" cx="133.33333333333331" cy="188.23529411764707" fill="hsl(261, 60%, 38%)" stroke="none"></circle><circle r="3.026315789473684" cx="177.77777777777777" cy="188.23529411764707" fill="hsl(261, 60%, 38%)" stroke="none"></circle><circle r="3.026315789473684" cx="222.22222222222223" cy="188.23529411764707" fill="hsl(261, 60%, 38%)" stroke="none"></circle><circle r="3.026315789473684" cx="266.6666666666667" cy="188.23529411764707" fill="hsl(261, 60%, 38%)" stroke="none"></circle><circle r="3.026315789473684" cx="311.11111111111114" cy="188.23529411764707" fill="hsl(261, 60%, 38%)" stroke="none"></circle><circle r="3.026315789473684" cx="355.5555555555556" cy="188.23529411764707" fill="hsl(261, 60%, 38%)" stroke="none"></circle><circle r="3.026315789473684" cx="400.00000000000006" cy="188.23529411764707" fill="hsl(261, 60%, 38%)" stroke="none"></circle><circle r="3.026315789473684" cx="444.4444444444445" cy="188.23529411764707" fill="hsl(261, 60%, 38%)" stroke="none"></circle><circle r="3.026315789473684" cx="488.88888888888897" cy="188.23529411764707" fill="hsl(261, 60%, 38%)" stroke="none"></circle><circle r="3.026315789473684" cx="533.3333333333334" cy="188.23529411764707" fill="hsl(261, 60%, 38%)" stroke="none"></circle><circle r="3.026315789473684" cx="577.7777777777778" cy="188.23529411764707" fill="hsl(261, 60%, 38%)" stroke="none"></circle><circle r="3.026315789473684" cx="622.2222222222223" cy="188.23529411764707" fill="hsl(261, 60%, 38%)" stroke="none"></circle><circle r="3.026315789473684" cx="666.6666666666667" cy="188.23529411764707" fill="hsl(261, 60%, 38%)" stroke="none"></circle><circle r="3.026315789473684" cx="711.1111111111112" cy="188.23529411764707" fill="hsl(261, 60%, 38%)" stroke="none"></circle><circle r="3.026315789473684" cx="755.5555555555557" cy="188.23529411764707" fill="hsl(261, 60%, 38%)" stroke="none"></circle><circle r="3.026315789473684" cx="800.0000000000001" cy="188.23529411764707" fill="hsl(261, 60%, 38%)" stroke="none"></circle><circle r="3.026315789473684" cx="0" cy="235.29411764705884" fill="hsl(261, 60%, 38%)" stroke="none"></circle><circle r="3.026315789473684" cx="44.44444444444444" cy="235.29411764705884" fill="hsl(261, 60%, 38%)" stroke="none"></circle><circle r="3.026315789473684" cx="88.88888888888889" cy="235.29411764705884" fill="hsl(261, 60%, 38%)" stroke="none"></circle><circle r="3.026315789473684" cx="133.33333333333331" cy="235.29411764705884" fill="hsl(261, 60%, 38%)" stroke="none"></circle><circle r="3.026315789473684" cx="177.77777777777777" cy="235.29411764705884" fill="hsl(261, 60%, 38%)" stroke="none"></circle><circle r="3.026315789473684" cx="222.22222222222223" cy="235.29411764705884" fill="hsl(261, 60%, 38%)" stroke="none"></circle><circle r="3.026315789473684" cx="266.6666666666667" cy="235.29411764705884" fill="hsl(261, 60%, 38%)" stroke="none"></circle><circle r="3.026315789473684" cx="311.11111111111114" cy="235.29411764705884" fill="hsl(261, 60%, 38%)" stroke="none"></circle><circle r="3.026315789473684" cx="355.5555555555556" cy="235.29411764705884" fill="hsl(261, 60%, 38%)" stroke="none"></circle><circle r="3.026315789473684" cx="400.00000000000006" cy="235.29411764705884" fill="hsl(261, 60%, 38%)" stroke="none"></circle><circle r="3.026315789473684" cx="444.4444444444445" cy="235.29411764705884" fill="hsl(261, 60%, 38%)" stroke="none"></circle><circle r="3.026315789473684" cx="488.88888888888897" cy="235.29411764705884" fill="hsl(261, 60%, 38%)" stroke="none"></circle><circle r="3.026315789473684" cx="533.3333333333334" cy="235.29411764705884" fill="hsl(261, 60%, 38%)" stroke="none"></circle><circle r="3.026315789473684" cx="577.7777777777778" cy="235.29411764705884" fill="hsl(261, 60%, 38%)" stroke="none"></circle><circle r="3.026315789473684" cx="622.2222222222223" cy="235.29411764705884" fill="hsl(261, 60%, 38%)" stroke="none"></circle><circle r="3.026315789473684" cx="666.6666666666667" cy="235.29411764705884" fill="hsl(261, 60%, 38%)" stroke="none"></circle><circle r="3.026315789473684" cx="711.1111111111112" cy="235.29411764705884" fill="hsl(261, 60%, 38%)" stroke="none"></circle><circle r="3.026315789473684" cx="755.5555555555557" cy="235.29411764705884" fill="hsl(261, 60%, 38%)" stroke="none"></circle><circle r="3.026315789473684" cx="800.0000000000001" cy="235.29411764705884" fill="hsl(261, 60%, 38%)" stroke="none"></circle><circle r="3.026315789473684" cx="0" cy="282.3529411764706" fill="hsl(261, 60%, 38%)" stroke="none"></circle><circle r="3.026315789473684" cx="44.44444444444444" cy="282.3529411764706" fill="hsl(261, 60%, 38%)" stroke="none"></circle><circle r="3.026315789473684" cx="88.88888888888889" cy="282.3529411764706" fill="hsl(261, 60%, 38%)" stroke="none"></circle><circle r="3.026315789473684" cx="133.33333333333331" cy="282.3529411764706" fill="hsl(261, 60%, 38%)" stroke="none"></circle><circle r="3.026315789473684" cx="177.77777777777777" cy="282.3529411764706" fill="hsl(261, 60%, 38%)" stroke="none"></circle><circle r="3.026315789473684" cx="222.22222222222223" cy="282.3529411764706" fill="hsl(261, 60%, 38%)" stroke="none"></circle><circle r="3.026315789473684" cx="266.6666666666667" cy="282.3529411764706" fill="hsl(261, 60%, 38%)" stroke="none"></circle><circle r="3.026315789473684" cx="311.11111111111114" cy="282.3529411764706" fill="hsl(261, 60%, 38%)" stroke="none"></circle><circle r="3.026315789473684" cx="355.5555555555556" cy="282.3529411764706" fill="hsl(261, 60%, 38%)" stroke="none"></circle><circle r="3.026315789473684" cx="400.00000000000006" cy="282.3529411764706" fill="hsl(261, 60%, 38%)" stroke="none"></circle><circle r="3.026315789473684" cx="444.4444444444445" cy="282.3529411764706" fill="hsl(261, 60%, 38%)" stroke="none"></circle><circle r="3.026315789473684" cx="488.88888888888897" cy="282.3529411764706" fill="hsl(261, 60%, 38%)" stroke="none"></circle><circle r="3.026315789473684" cx="533.3333333333334" cy="282.3529411764706" fill="hsl(261, 60%, 38%)" stroke="none"></circle><circle r="3.026315789473684" cx="577.7777777777778" cy="282.3529411764706" fill="hsl(261, 60%, 38%)" stroke="none"></circle><circle r="3.026315789473684" cx="622.2222222222223" cy="282.3529411764706" fill="hsl(261, 60%, 38%)" stroke="none"></circle><circle r="3.026315789473684" cx="666.6666666666667" cy="282.3529411764706" fill="hsl(261, 60%, 38%)" stroke="none"></circle><circle r="3.026315789473684" cx="711.1111111111112" cy="282.3529411764706" fill="hsl(261, 60%, 38%)" stroke="none"></circle><circle r="3.026315789473684" cx="755.5555555555557" cy="282.3529411764706" fill="hsl(261, 60%, 38%)" stroke="none"></circle><circle r="3.026315789473684" cx="800.0000000000001" cy="282.3529411764706" fill="hsl(261, 60%, 38%)" stroke="none"></circle><circle r="3.026315789473684" cx="0" cy="329.4117647058824" fill="hsl(261, 60%, 38%)" stroke="none"></circle><circle r="3.026315789473684" cx="44.44444444444444" cy="329.4117647058824" fill="hsl(261, 60%, 38%)" stroke="none"></circle><circle r="3.026315789473684" cx="88.88888888888889" cy="329.4117647058824" fill="hsl(261, 60%, 38%)" stroke="none"></circle><circle r="3.026315789473684" cx="133.33333333333331" cy="329.4117647058824" fill="hsl(261, 60%, 38%)" stroke="none"></circle><circle r="3.026315789473684" cx="177.77777777777777" cy="329.4117647058824" fill="hsl(261, 60%, 38%)" stroke="none"></circle><circle r="3.026315789473684" cx="222.22222222222223" cy="329.4117647058824" fill="hsl(261, 60%, 38%)" stroke="none"></circle><circle r="3.026315789473684" cx="266.6666666666667" cy="329.4117647058824" fill="hsl(261, 60%, 38%)" stroke="none"></circle><circle r="3.026315789473684" cx="311.11111111111114" cy="329.4117647058824" fill="hsl(261, 60%, 38%)" stroke="none"></circle><circle r="3.026315789473684" cx="355.5555555555556" cy="329.4117647058824" fill="hsl(261, 60%, 38%)" stroke="none"></circle><circle r="3.026315789473684" cx="400.00000000000006" cy="329.4117647058824" fill="hsl(261, 60%, 38%)" stroke="none"></circle><circle r="3.026315789473684" cx="444.4444444444445" cy="329.4117647058824" fill="hsl(261, 60%, 38%)" stroke="none"></circle><circle r="3.026315789473684" cx="488.88888888888897" cy="329.4117647058824" fill="hsl(261, 60%, 38%)" stroke="none"></circle><circle r="3.026315789473684" cx="533.3333333333334" cy="329.4117647058824" fill="hsl(261, 60%, 38%)" stroke="none"></circle><circle r="3.026315789473684" cx="577.7777777777778" cy="329.4117647058824" fill="hsl(261, 60%, 38%)" stroke="none"></circle><circle r="3.026315789473684" cx="622.2222222222223" cy="329.4117647058824" fill="hsl(261, 60%, 38%)" stroke="none"></circle><circle r="3.026315789473684" cx="666.6666666666667" cy="329.4117647058824" fill="hsl(261, 60%, 38%)" stroke="none"></circle><circle r="3.026315789473684" cx="711.1111111111112" cy="329.4117647058824" fill="hsl(261, 60%, 38%)" stroke="none"></circle><circle r="3.026315789473684" cx="755.5555555555557" cy="329.4117647058824" fill="hsl(261, 60%, 38%)" stroke="none"></circle><circle r="3.026315789473684" cx="800.0000000000001" cy="329.4117647058824" fill="hsl(261, 60%, 38%)" stroke="none"></circle><circle r="3.026315789473684" cx="0" cy="376.47058823529414" fill="hsl(261, 60%, 38%)" stroke="none"></circle><circle r="3.026315789473684" cx="44.44444444444444" cy="376.47058823529414" fill="hsl(261, 60%, 38%)" stroke="none"></circle><circle r="3.026315789473684" cx="88.88888888888889" cy="376.47058823529414" fill="hsl(261, 60%, 38%)" stroke="none"></circle><circle r="3.026315789473684" cx="133.33333333333331" cy="376.47058823529414" fill="hsl(261, 60%, 38%)" stroke="none"></circle><circle r="3.026315789473684" cx="177.77777777777777" cy="376.47058823529414" fill="hsl(261, 60%, 38%)" stroke="none"></circle><circle r="3.026315789473684" cx="222.22222222222223" cy="376.47058823529414" fill="hsl(261, 60%, 38%)" stroke="none"></circle><circle r="3.026315789473684" cx="266.6666666666667" cy="376.47058823529414" fill="hsl(261, 60%, 38%)" stroke="none"></circle><circle r="3.026315789473684" cx="311.11111111111114" cy="376.47058823529414" fill="hsl(261, 60%, 38%)" stroke="none"></circle><circle r="3.026315789473684" cx="355.5555555555556" cy="376.47058823529414" fill="hsl(261, 60%, 38%)" stroke="none"></circle><circle r="3.026315789473684" cx="400.00000000000006" cy="376.47058823529414" fill="hsl(261, 60%, 38%)" stroke="none"></circle><circle r="3.026315789473684" cx="444.4444444444445" cy="376.47058823529414" fill="hsl(261, 60%, 38%)" stroke="none"></circle><circle r="3.026315789473684" cx="488.88888888888897" cy="376.47058823529414" fill="hsl(261, 60%, 38%)" stroke="none"></circle><circle r="3.026315789473684" cx="533.3333333333334" cy="376.47058823529414" fill="hsl(261, 60%, 38%)" stroke="none"></circle><circle r="3.026315789473684" cx="577.7777777777778" cy="376.47058823529414" fill="hsl(261, 60%, 38%)" stroke="none"></circle><circle r="3.026315789473684" cx="622.2222222222223" cy="376.47058823529414" fill="hsl(261, 60%, 38%)" stroke="none"></circle><circle r="3.026315789473684" cx="666.6666666666667" cy="376.47058823529414" fill="hsl(261, 60%, 38%)" stroke="none"></circle><circle r="3.026315789473684" cx="711.1111111111112" cy="376.47058823529414" fill="hsl(261, 60%, 38%)" stroke="none"></circle><circle r="3.026315789473684" cx="755.5555555555557" cy="376.47058823529414" fill="hsl(261, 60%, 38%)" stroke="none"></circle><circle r="3.026315789473684" cx="800.0000000000001" cy="376.47058823529414" fill="hsl(261, 60%, 38%)" stroke="none"></circle><circle r="3.026315789473684" cx="0" cy="423.5294117647059" fill="hsl(261, 60%, 38%)" stroke="none"></circle><circle r="3.026315789473684" cx="44.44444444444444" cy="423.5294117647059" fill="hsl(261, 60%, 38%)" stroke="none"></circle><circle r="3.026315789473684" cx="88.88888888888889" cy="423.5294117647059" fill="hsl(261, 60%, 38%)" stroke="none"></circle><circle r="3.026315789473684" cx="133.33333333333331" cy="423.5294117647059" fill="hsl(261, 60%, 38%)" stroke="none"></circle><circle r="3.026315789473684" cx="177.77777777777777" cy="423.5294117647059" fill="hsl(261, 60%, 38%)" stroke="none"></circle><circle r="3.026315789473684" cx="222.22222222222223" cy="423.5294117647059" fill="hsl(261, 60%, 38%)" stroke="none"></circle><circle r="3.026315789473684" cx="266.6666666666667" cy="423.5294117647059" fill="hsl(261, 60%, 38%)" stroke="none"></circle><circle r="3.026315789473684" cx="311.11111111111114" cy="423.5294117647059" fill="hsl(261, 60%, 38%)" stroke="none"></circle><circle r="3.026315789473684" cx="355.5555555555556" cy="423.5294117647059" fill="hsl(261, 60%, 38%)" stroke="none"></circle><circle r="3.026315789473684" cx="400.00000000000006" cy="423.5294117647059" fill="hsl(261, 60%, 38%)" stroke="none"></circle><circle r="3.026315789473684" cx="444.4444444444445" cy="423.5294117647059" fill="hsl(261, 60%, 38%)" stroke="none"></circle><circle r="3.026315789473684" cx="488.88888888888897" cy="423.5294117647059" fill="hsl(261, 60%, 38%)" stroke="none"></circle><circle r="3.026315789473684" cx="533.3333333333334" cy="423.5294117647059" fill="hsl(261, 60%, 38%)" stroke="none"></circle><circle r="3.026315789473684" cx="577.7777777777778" cy="423.5294117647059" fill="hsl(261, 60%, 38%)" stroke="none"></circle><circle r="3.026315789473684" cx="622.2222222222223" cy="423.5294117647059" fill="hsl(261, 60%, 38%)" stroke="none"></circle><circle r="3.026315789473684" cx="666.6666666666667" cy="423.5294117647059" fill="hsl(261, 60%, 38%)" stroke="none"></circle><circle r="3.026315789473684" cx="711.1111111111112" cy="423.5294117647059" fill="hsl(261, 60%, 38%)" stroke="none"></circle><circle r="3.026315789473684" cx="755.5555555555557" cy="423.5294117647059" fill="hsl(261, 60%, 38%)" stroke="none"></circle><circle r="3.026315789473684" cx="800.0000000000001" cy="423.5294117647059" fill="hsl(261, 60%, 38%)" stroke="none"></circle><circle r="3.026315789473684" cx="0" cy="470.5882352941177" fill="hsl(261, 60%, 38%)" stroke="none"></circle><circle r="3.026315789473684" cx="44.44444444444444" cy="470.5882352941177" fill="hsl(261, 60%, 38%)" stroke="none"></circle><circle r="3.026315789473684" cx="88.88888888888889" cy="470.5882352941177" fill="hsl(261, 60%, 38%)" stroke="none"></circle><circle r="3.026315789473684" cx="133.33333333333331" cy="470.5882352941177" fill="hsl(261, 60%, 38%)" stroke="none"></circle><circle r="3.026315789473684" cx="177.77777777777777" cy="470.5882352941177" fill="hsl(261, 60%, 38%)" stroke="none"></circle><circle r="3.026315789473684" cx="222.22222222222223" cy="470.5882352941177" fill="hsl(261, 60%, 38%)" stroke="none"></circle><circle r="3.026315789473684" cx="266.6666666666667" cy="470.5882352941177" fill="hsl(261, 60%, 38%)" stroke="none"></circle><circle r="3.026315789473684" cx="311.11111111111114" cy="470.5882352941177" fill="hsl(261, 60%, 38%)" stroke="none"></circle><circle r="3.026315789473684" cx="355.5555555555556" cy="470.5882352941177" fill="hsl(261, 60%, 38%)" stroke="none"></circle><circle r="3.026315789473684" cx="400.00000000000006" cy="470.5882352941177" fill="hsl(261, 60%, 38%)" stroke="none"></circle><circle r="3.026315789473684" cx="444.4444444444445" cy="470.5882352941177" fill="hsl(261, 60%, 38%)" stroke="none"></circle><circle r="3.026315789473684" cx="488.88888888888897" cy="470.5882352941177" fill="hsl(261, 60%, 38%)" stroke="none"></circle><circle r="3.026315789473684" cx="533.3333333333334" cy="470.5882352941177" fill="hsl(261, 60%, 38%)" stroke="none"></circle><circle r="3.026315789473684" cx="577.7777777777778" cy="470.5882352941177" fill="hsl(261, 60%, 38%)" stroke="none"></circle><circle r="3.026315789473684" cx="622.2222222222223" cy="470.5882352941177" fill="hsl(261, 60%, 38%)" stroke="none"></circle><circle r="3.026315789473684" cx="666.6666666666667" cy="470.5882352941177" fill="hsl(261, 60%, 38%)" stroke="none"></circle><circle r="3.026315789473684" cx="711.1111111111112" cy="470.5882352941177" fill="hsl(261, 60%, 38%)" stroke="none"></circle><circle r="3.026315789473684" cx="755.5555555555557" cy="470.5882352941177" fill="hsl(261, 60%, 38%)" stroke="none"></circle><circle r="3.026315789473684" cx="800.0000000000001" cy="470.5882352941177" fill="hsl(261, 60%, 38%)" stroke="none"></circle><circle r="3.026315789473684" cx="0" cy="517.6470588235295" fill="hsl(261, 60%, 38%)" stroke="none"></circle><circle r="3.026315789473684" cx="44.44444444444444" cy="517.6470588235295" fill="hsl(261, 60%, 38%)" stroke="none"></circle><circle r="3.026315789473684" cx="88.88888888888889" cy="517.6470588235295" fill="hsl(261, 60%, 38%)" stroke="none"></circle><circle r="3.026315789473684" cx="133.33333333333331" cy="517.6470588235295" fill="hsl(261, 60%, 38%)" stroke="none"></circle><circle r="3.026315789473684" cx="177.77777777777777" cy="517.6470588235295" fill="hsl(261, 60%, 38%)" stroke="none"></circle><circle r="3.026315789473684" cx="222.22222222222223" cy="517.6470588235295" fill="hsl(261, 60%, 38%)" stroke="none"></circle><circle r="3.026315789473684" cx="266.6666666666667" cy="517.6470588235295" fill="hsl(261, 60%, 38%)" stroke="none"></circle><circle r="3.026315789473684" cx="311.11111111111114" cy="517.6470588235295" fill="hsl(261, 60%, 38%)" stroke="none"></circle><circle r="3.026315789473684" cx="355.5555555555556" cy="517.6470588235295" fill="hsl(261, 60%, 38%)" stroke="none"></circle><circle r="3.026315789473684" cx="400.00000000000006" cy="517.6470588235295" fill="hsl(261, 60%, 38%)" stroke="none"></circle><circle r="3.026315789473684" cx="444.4444444444445" cy="517.6470588235295" fill="hsl(261, 60%, 38%)" stroke="none"></circle><circle r="3.026315789473684" cx="488.88888888888897" cy="517.6470588235295" fill="hsl(261, 60%, 38%)" stroke="none"></circle><circle r="3.026315789473684" cx="533.3333333333334" cy="517.6470588235295" fill="hsl(261, 60%, 38%)" stroke="none"></circle><circle r="3.026315789473684" cx="577.7777777777778" cy="517.6470588235295" fill="hsl(261, 60%, 38%)" stroke="none"></circle><circle r="3.026315789473684" cx="622.2222222222223" cy="517.6470588235295" fill="hsl(261, 60%, 38%)" stroke="none"></circle><circle r="3.026315789473684" cx="666.6666666666667" cy="517.6470588235295" fill="hsl(261, 60%, 38%)" stroke="none"></circle><circle r="3.026315789473684" cx="711.1111111111112" cy="517.6470588235295" fill="hsl(261, 60%, 38%)" stroke="none"></circle><circle r="3.026315789473684" cx="755.5555555555557" cy="517.6470588235295" fill="hsl(261, 60%, 38%)" stroke="none"></circle><circle r="3.026315789473684" cx="800.0000000000001" cy="517.6470588235295" fill="hsl(261, 60%, 38%)" stroke="none"></circle><circle r="3.026315789473684" cx="0" cy="564.7058823529412" fill="hsl(261, 60%, 38%)" stroke="none"></circle><circle r="3.026315789473684" cx="44.44444444444444" cy="564.7058823529412" fill="hsl(261, 60%, 38%)" stroke="none"></circle><circle r="3.026315789473684" cx="88.88888888888889" cy="564.7058823529412" fill="hsl(261, 60%, 38%)" stroke="none"></circle><circle r="3.026315789473684" cx="133.33333333333331" cy="564.7058823529412" fill="hsl(261, 60%, 38%)" stroke="none"></circle><circle r="3.026315789473684" cx="177.77777777777777" cy="564.7058823529412" fill="hsl(261, 60%, 38%)" stroke="none"></circle><circle r="3.026315789473684" cx="222.22222222222223" cy="564.7058823529412" fill="hsl(261, 60%, 38%)" stroke="none"></circle><circle r="3.026315789473684" cx="266.6666666666667" cy="564.7058823529412" fill="hsl(261, 60%, 38%)" stroke="none"></circle><circle r="3.026315789473684" cx="311.11111111111114" cy="564.7058823529412" fill="hsl(261, 60%, 38%)" stroke="none"></circle><circle r="3.026315789473684" cx="355.5555555555556" cy="564.7058823529412" fill="hsl(261, 60%, 38%)" stroke="none"></circle><circle r="3.026315789473684" cx="400.00000000000006" cy="564.7058823529412" fill="hsl(261, 60%, 38%)" stroke="none"></circle><circle r="3.026315789473684" cx="444.4444444444445" cy="564.7058823529412" fill="hsl(261, 60%, 38%)" stroke="none"></circle><circle r="3.026315789473684" cx="488.88888888888897" cy="564.7058823529412" fill="hsl(261, 60%, 38%)" stroke="none"></circle><circle r="3.026315789473684" cx="533.3333333333334" cy="564.7058823529412" fill="hsl(261, 60%, 38%)" stroke="none"></circle><circle r="3.026315789473684" cx="577.7777777777778" cy="564.7058823529412" fill="hsl(261, 60%, 38%)" stroke="none"></circle><circle r="3.026315789473684" cx="622.2222222222223" cy="564.7058823529412" fill="hsl(261, 60%, 38%)" stroke="none"></circle><circle r="3.026315789473684" cx="666.6666666666667" cy="564.7058823529412" fill="hsl(261, 60%, 38%)" stroke="none"></circle><circle r="3.026315789473684" cx="711.1111111111112" cy="564.7058823529412" fill="hsl(261, 60%, 38%)" stroke="none"></circle><circle r="3.026315789473684" cx="755.5555555555557" cy="564.7058823529412" fill="hsl(261, 60%, 38%)" stroke="none"></circle><circle r="3.026315789473684" cx="800.0000000000001" cy="564.7058823529412" fill="hsl(261, 60%, 38%)" stroke="none"></circle><circle r="3.026315789473684" cx="0" cy="611.7647058823529" fill="hsl(261, 60%, 38%)" stroke="none"></circle><circle r="3.026315789473684" cx="44.44444444444444" cy="611.7647058823529" fill="hsl(261, 60%, 38%)" stroke="none"></circle><circle r="3.026315789473684" cx="88.88888888888889" cy="611.7647058823529" fill="hsl(261, 60%, 38%)" stroke="none"></circle><circle r="3.026315789473684" cx="133.33333333333331" cy="611.7647058823529" fill="hsl(261, 60%, 38%)" stroke="none"></circle><circle r="3.026315789473684" cx="177.77777777777777" cy="611.7647058823529" fill="hsl(261, 60%, 38%)" stroke="none"></circle><circle r="3.026315789473684" cx="222.22222222222223" cy="611.7647058823529" fill="hsl(261, 60%, 38%)" stroke="none"></circle><circle r="3.026315789473684" cx="266.6666666666667" cy="611.7647058823529" fill="hsl(261, 60%, 38%)" stroke="none"></circle><circle r="3.026315789473684" cx="311.11111111111114" cy="611.7647058823529" fill="hsl(261, 60%, 38%)" stroke="none"></circle><circle r="3.026315789473684" cx="355.5555555555556" cy="611.7647058823529" fill="hsl(261, 60%, 38%)" stroke="none"></circle><circle r="3.026315789473684" cx="400.00000000000006" cy="611.7647058823529" fill="hsl(261, 60%, 38%)" stroke="none"></circle><circle r="3.026315789473684" cx="444.4444444444445" cy="611.7647058823529" fill="hsl(261, 60%, 38%)" stroke="none"></circle><circle r="3.026315789473684" cx="488.88888888888897" cy="611.7647058823529" fill="hsl(261, 60%, 38%)" stroke="none"></circle><circle r="3.026315789473684" cx="533.3333333333334" cy="611.7647058823529" fill="hsl(261, 60%, 38%)" stroke="none"></circle><circle r="3.026315789473684" cx="577.7777777777778" cy="611.7647058823529" fill="hsl(261, 60%, 38%)" stroke="none"></circle><circle r="3.026315789473684" cx="622.2222222222223" cy="611.7647058823529" fill="hsl(261, 60%, 38%)" stroke="none"></circle><circle r="3.026315789473684" cx="666.6666666666667" cy="611.7647058823529" fill="hsl(261, 60%, 38%)" stroke="none"></circle><circle r="3.026315789473684" cx="711.1111111111112" cy="611.7647058823529" fill="hsl(261, 60%, 38%)" stroke="none"></circle><circle r="3.026315789473684" cx="755.5555555555557" cy="611.7647058823529" fill="hsl(261, 60%, 38%)" stroke="none"></circle><circle r="3.026315789473684" cx="800.0000000000001" cy="611.7647058823529" fill="hsl(261, 60%, 38%)" stroke="none"></circle><circle r="3.026315789473684" cx="0" cy="658.8235294117646" fill="hsl(261, 60%, 38%)" stroke="none"></circle><circle r="3.026315789473684" cx="44.44444444444444" cy="658.8235294117646" fill="hsl(261, 60%, 38%)" stroke="none"></circle><circle r="3.026315789473684" cx="88.88888888888889" cy="658.8235294117646" fill="hsl(261, 60%, 38%)" stroke="none"></circle><circle r="3.026315789473684" cx="133.33333333333331" cy="658.8235294117646" fill="hsl(261, 60%, 38%)" stroke="none"></circle><circle r="3.026315789473684" cx="177.77777777777777" cy="658.8235294117646" fill="hsl(261, 60%, 38%)" stroke="none"></circle><circle r="3.026315789473684" cx="222.22222222222223" cy="658.8235294117646" fill="hsl(261, 60%, 38%)" stroke="none"></circle><circle r="3.026315789473684" cx="266.6666666666667" cy="658.8235294117646" fill="hsl(261, 60%, 38%)" stroke="none"></circle><circle r="3.026315789473684" cx="311.11111111111114" cy="658.8235294117646" fill="hsl(261, 60%, 38%)" stroke="none"></circle><circle r="3.026315789473684" cx="355.5555555555556" cy="658.8235294117646" fill="hsl(261, 60%, 38%)" stroke="none"></circle><circle r="3.026315789473684" cx="400.00000000000006" cy="658.8235294117646" fill="hsl(261, 60%, 38%)" stroke="none"></circle><circle r="3.026315789473684" cx="444.4444444444445" cy="658.8235294117646" fill="hsl(261, 60%, 38%)" stroke="none"></circle><circle r="3.026315789473684" cx="488.88888888888897" cy="658.8235294117646" fill="hsl(261, 60%, 38%)" stroke="none"></circle><circle r="3.026315789473684" cx="533.3333333333334" cy="658.8235294117646" fill="hsl(261, 60%, 38%)" stroke="none"></circle><circle r="3.026315789473684" cx="577.7777777777778" cy="658.8235294117646" fill="hsl(261, 60%, 38%)" stroke="none"></circle><circle r="3.026315789473684" cx="622.2222222222223" cy="658.8235294117646" fill="hsl(261, 60%, 38%)" stroke="none"></circle><circle r="3.026315789473684" cx="666.6666666666667" cy="658.8235294117646" fill="hsl(261, 60%, 38%)" stroke="none"></circle><circle r="3.026315789473684" cx="711.1111111111112" cy="658.8235294117646" fill="hsl(261, 60%, 38%)" stroke="none"></circle><circle r="3.026315789473684" cx="755.5555555555557" cy="658.8235294117646" fill="hsl(261, 60%, 38%)" stroke="none"></circle><circle r="3.026315789473684" cx="800.0000000000001" cy="658.8235294117646" fill="hsl(261, 60%, 38%)" stroke="none"></circle><circle r="3.026315789473684" cx="0" cy="705.8823529411764" fill="hsl(261, 60%, 38%)" stroke="none"></circle><circle r="3.026315789473684" cx="44.44444444444444" cy="705.8823529411764" fill="hsl(261, 60%, 38%)" stroke="none"></circle><circle r="3.026315789473684" cx="88.88888888888889" cy="705.8823529411764" fill="hsl(261, 60%, 38%)" stroke="none"></circle><circle r="3.026315789473684" cx="133.33333333333331" cy="705.8823529411764" fill="hsl(261, 60%, 38%)" stroke="none"></circle><circle r="3.026315789473684" cx="177.77777777777777" cy="705.8823529411764" fill="hsl(261, 60%, 38%)" stroke="none"></circle><circle r="3.026315789473684" cx="222.22222222222223" cy="705.8823529411764" fill="hsl(261, 60%, 38%)" stroke="none"></circle><circle r="3.026315789473684" cx="266.6666666666667" cy="705.8823529411764" fill="hsl(261, 60%, 38%)" stroke="none"></circle><circle r="3.026315789473684" cx="311.11111111111114" cy="705.8823529411764" fill="hsl(261, 60%, 38%)" stroke="none"></circle><circle r="3.026315789473684" cx="355.5555555555556" cy="705.8823529411764" fill="hsl(261, 60%, 38%)" stroke="none"></circle><circle r="3.026315789473684" cx="400.00000000000006" cy="705.8823529411764" fill="hsl(261, 60%, 38%)" stroke="none"></circle><circle r="3.026315789473684" cx="444.4444444444445" cy="705.8823529411764" fill="hsl(261, 60%, 38%)" stroke="none"></circle><circle r="3.026315789473684" cx="488.88888888888897" cy="705.8823529411764" fill="hsl(261, 60%, 38%)" stroke="none"></circle><circle r="3.026315789473684" cx="533.3333333333334" cy="705.8823529411764" fill="hsl(261, 60%, 38%)" stroke="none"></circle><circle r="3.026315789473684" cx="577.7777777777778" cy="705.8823529411764" fill="hsl(261, 60%, 38%)" stroke="none"></circle><circle r="3.026315789473684" cx="622.2222222222223" cy="705.8823529411764" fill="hsl(261, 60%, 38%)" stroke="none"></circle><circle r="3.026315789473684" cx="666.6666666666667" cy="705.8823529411764" fill="hsl(261, 60%, 38%)" stroke="none"></circle><circle r="3.026315789473684" cx="711.1111111111112" cy="705.8823529411764" fill="hsl(261, 60%, 38%)" stroke="none"></circle><circle r="3.026315789473684" cx="755.5555555555557" cy="705.8823529411764" fill="hsl(261, 60%, 38%)" stroke="none"></circle><circle r="3.026315789473684" cx="800.0000000000001" cy="705.8823529411764" fill="hsl(261, 60%, 38%)" stroke="none"></circle><circle r="3.026315789473684" cx="0" cy="752.9411764705881" fill="hsl(261, 60%, 38%)" stroke="none"></circle><circle r="3.026315789473684" cx="44.44444444444444" cy="752.9411764705881" fill="hsl(261, 60%, 38%)" stroke="none"></circle><circle r="3.026315789473684" cx="88.88888888888889" cy="752.9411764705881" fill="hsl(261, 60%, 38%)" stroke="none"></circle><circle r="3.026315789473684" cx="133.33333333333331" cy="752.9411764705881" fill="hsl(261, 60%, 38%)" stroke="none"></circle><circle r="3.026315789473684" cx="177.77777777777777" cy="752.9411764705881" fill="hsl(261, 60%, 38%)" stroke="none"></circle><circle r="3.026315789473684" cx="222.22222222222223" cy="752.9411764705881" fill="hsl(261, 60%, 38%)" stroke="none"></circle><circle r="3.026315789473684" cx="266.6666666666667" cy="752.9411764705881" fill="hsl(261, 60%, 38%)" stroke="none"></circle><circle r="3.026315789473684" cx="311.11111111111114" cy="752.9411764705881" fill="hsl(261, 60%, 38%)" stroke="none"></circle><circle r="3.026315789473684" cx="355.5555555555556" cy="752.9411764705881" fill="hsl(261, 60%, 38%)" stroke="none"></circle><circle r="3.026315789473684" cx="400.00000000000006" cy="752.9411764705881" fill="hsl(261, 60%, 38%)" stroke="none"></circle><circle r="3.026315789473684" cx="444.4444444444445" cy="752.9411764705881" fill="hsl(261, 60%, 38%)" stroke="none"></circle><circle r="3.026315789473684" cx="488.88888888888897" cy="752.9411764705881" fill="hsl(261, 60%, 38%)" stroke="none"></circle><circle r="3.026315789473684" cx="533.3333333333334" cy="752.9411764705881" fill="hsl(261, 60%, 38%)" stroke="none"></circle><circle r="3.026315789473684" cx="577.7777777777778" cy="752.9411764705881" fill="hsl(261, 60%, 38%)" stroke="none"></circle><circle r="3.026315789473684" cx="622.2222222222223" cy="752.9411764705881" fill="hsl(261, 60%, 38%)" stroke="none"></circle><circle r="3.026315789473684" cx="666.6666666666667" cy="752.9411764705881" fill="hsl(261, 60%, 38%)" stroke="none"></circle><circle r="3.026315789473684" cx="711.1111111111112" cy="752.9411764705881" fill="hsl(261, 60%, 38%)" stroke="none"></circle><circle r="3.026315789473684" cx="755.5555555555557" cy="752.9411764705881" fill="hsl(261, 60%, 38%)" stroke="none"></circle><circle r="3.026315789473684" cx="800.0000000000001" cy="752.9411764705881" fill="hsl(261, 60%, 38%)" stroke="none"></circle><circle r="3.026315789473684" cx="0" cy="799.9999999999998" fill="hsl(261, 60%, 38%)" stroke="none"></circle><circle r="3.026315789473684" cx="44.44444444444444" cy="799.9999999999998" fill="hsl(261, 60%, 38%)" stroke="none"></circle><circle r="3.026315789473684" cx="88.88888888888889" cy="799.9999999999998" fill="hsl(261, 60%, 38%)" stroke="none"></circle><circle r="3.026315789473684" cx="133.33333333333331" cy="799.9999999999998" fill="hsl(261, 60%, 38%)" stroke="none"></circle><circle r="3.026315789473684" cx="177.77777777777777" cy="799.9999999999998" fill="hsl(261, 60%, 38%)" stroke="none"></circle><circle r="3.026315789473684" cx="222.22222222222223" cy="799.9999999999998" fill="hsl(261, 60%, 38%)" stroke="none"></circle><circle r="3.026315789473684" cx="266.6666666666667" cy="799.9999999999998" fill="hsl(261, 60%, 38%)" stroke="none"></circle><circle r="3.026315789473684" cx="311.11111111111114" cy="799.9999999999998" fill="hsl(261, 60%, 38%)" stroke="none"></circle><circle r="3.026315789473684" cx="355.5555555555556" cy="799.9999999999998" fill="hsl(261, 60%, 38%)" stroke="none"></circle><circle r="3.026315789473684" cx="400.00000000000006" cy="799.9999999999998" fill="hsl(261, 60%, 38%)" stroke="none"></circle><circle r="3.026315789473684" cx="444.4444444444445" cy="799.9999999999998" fill="hsl(261, 60%, 38%)" stroke="none"></circle><circle r="3.026315789473684" cx="488.88888888888897" cy="799.9999999999998" fill="hsl(261, 60%, 38%)" stroke="none"></circle><circle r="3.026315789473684" cx="533.3333333333334" cy="799.9999999999998" fill="hsl(261, 60%, 38%)" stroke="none"></circle><circle r="3.026315789473684" cx="577.7777777777778" cy="799.9999999999998" fill="hsl(261, 60%, 38%)" stroke="none"></circle><circle r="3.026315789473684" cx="622.2222222222223" cy="799.9999999999998" fill="hsl(261, 60%, 38%)" stroke="none"></circle><circle r="3.026315789473684" cx="666.6666666666667" cy="799.9999999999998" fill="hsl(261, 60%, 38%)" stroke="none"></circle><circle r="3.026315789473684" cx="711.1111111111112" cy="799.9999999999998" fill="hsl(261, 60%, 38%)" stroke="none"></circle><circle r="3.026315789473684" cx="755.5555555555557" cy="799.9999999999998" fill="hsl(261, 60%, 38%)" stroke="none"></circle><circle r="3.026315789473684" cx="800.0000000000001" cy="799.9999999999998" fill="hsl(261, 60%, 38%)" stroke="none"></circle></g></svg>